<mxfile host="app.diagrams.net" agent="Mozilla/5.0 (Windows NT 10.0; Win64; x64) AppleWebKit/537.36 (KHTML, like Gecko) Chrome/134.0.0.0 Safari/537.36" version="26.2.9">
  <diagram id="C5RBs43oDa-KdzZeNtuy" name="Page-1">
    <mxGraphModel dx="985" dy="512" grid="1" gridSize="10" guides="1" tooltips="1" connect="1" arrows="1" fold="1" page="1" pageScale="1" pageWidth="827" pageHeight="1169" math="0" shadow="0">
      <root>
        <mxCell id="WIyWlLk6GJQsqaUBKTNV-0" />
        <mxCell id="WIyWlLk6GJQsqaUBKTNV-1" parent="WIyWlLk6GJQsqaUBKTNV-0" />
        <mxCell id="WIyWlLk6GJQsqaUBKTNV-2" value="" style="rounded=0;html=1;jettySize=auto;orthogonalLoop=1;fontSize=11;endArrow=block;endFill=0;endSize=8;strokeWidth=1;shadow=0;labelBackgroundColor=none;edgeStyle=orthogonalEdgeStyle;" parent="WIyWlLk6GJQsqaUBKTNV-1" source="WIyWlLk6GJQsqaUBKTNV-3" target="WIyWlLk6GJQsqaUBKTNV-6" edge="1">
          <mxGeometry relative="1" as="geometry" />
        </mxCell>
        <mxCell id="WIyWlLk6GJQsqaUBKTNV-3" value="Prologue" style="rounded=1;whiteSpace=wrap;html=1;fontSize=12;glass=0;strokeWidth=1;shadow=0;" parent="WIyWlLk6GJQsqaUBKTNV-1" vertex="1">
          <mxGeometry x="160" y="80" width="120" height="40" as="geometry" />
        </mxCell>
        <mxCell id="cFMcKcCD4Te3fT23bWpL-0" style="edgeStyle=orthogonalEdgeStyle;rounded=0;orthogonalLoop=1;jettySize=auto;html=1;" edge="1" parent="WIyWlLk6GJQsqaUBKTNV-1" source="WIyWlLk6GJQsqaUBKTNV-6" target="WIyWlLk6GJQsqaUBKTNV-10">
          <mxGeometry relative="1" as="geometry" />
        </mxCell>
        <mxCell id="WIyWlLk6GJQsqaUBKTNV-6" value="Joshua Room" style="rhombus;whiteSpace=wrap;html=1;shadow=0;fontFamily=Helvetica;fontSize=12;align=center;strokeWidth=1;spacing=6;spacingTop=-4;" parent="WIyWlLk6GJQsqaUBKTNV-1" vertex="1">
          <mxGeometry x="170" y="170" width="100" height="80" as="geometry" />
        </mxCell>
        <mxCell id="cFMcKcCD4Te3fT23bWpL-2" style="edgeStyle=orthogonalEdgeStyle;rounded=0;orthogonalLoop=1;jettySize=auto;html=1;entryX=0.5;entryY=0;entryDx=0;entryDy=0;" edge="1" parent="WIyWlLk6GJQsqaUBKTNV-1" source="WIyWlLk6GJQsqaUBKTNV-10" target="WIyWlLk6GJQsqaUBKTNV-11">
          <mxGeometry relative="1" as="geometry" />
        </mxCell>
        <mxCell id="WIyWlLk6GJQsqaUBKTNV-10" value="Meet the&amp;nbsp;&lt;div&gt;Rabbi for Lunch&lt;/div&gt;" style="rhombus;whiteSpace=wrap;html=1;shadow=0;fontFamily=Helvetica;fontSize=12;align=center;strokeWidth=1;spacing=6;spacingTop=-4;" parent="WIyWlLk6GJQsqaUBKTNV-1" vertex="1">
          <mxGeometry x="170" y="290" width="100" height="80" as="geometry" />
        </mxCell>
        <mxCell id="cFMcKcCD4Te3fT23bWpL-4" style="edgeStyle=orthogonalEdgeStyle;rounded=0;orthogonalLoop=1;jettySize=auto;html=1;entryX=0;entryY=0.5;entryDx=0;entryDy=0;" edge="1" parent="WIyWlLk6GJQsqaUBKTNV-1" source="WIyWlLk6GJQsqaUBKTNV-11" target="cFMcKcCD4Te3fT23bWpL-3">
          <mxGeometry relative="1" as="geometry" />
        </mxCell>
        <mxCell id="WIyWlLk6GJQsqaUBKTNV-11" value="Go to the Factory" style="rounded=1;whiteSpace=wrap;html=1;fontSize=12;glass=0;strokeWidth=1;shadow=0;" parent="WIyWlLk6GJQsqaUBKTNV-1" vertex="1">
          <mxGeometry x="160" y="430" width="120" height="30" as="geometry" />
        </mxCell>
        <mxCell id="cFMcKcCD4Te3fT23bWpL-1" value="Chapter 1" style="rounded=0;whiteSpace=wrap;html=1;" vertex="1" parent="WIyWlLk6GJQsqaUBKTNV-1">
          <mxGeometry x="20" y="140" width="140" height="60" as="geometry" />
        </mxCell>
        <mxCell id="cFMcKcCD4Te3fT23bWpL-6" style="edgeStyle=orthogonalEdgeStyle;rounded=0;orthogonalLoop=1;jettySize=auto;html=1;" edge="1" parent="WIyWlLk6GJQsqaUBKTNV-1" source="cFMcKcCD4Te3fT23bWpL-3" target="cFMcKcCD4Te3fT23bWpL-5">
          <mxGeometry relative="1" as="geometry" />
        </mxCell>
        <mxCell id="cFMcKcCD4Te3fT23bWpL-3" value="Clear Factory Dungeon" style="rounded=0;whiteSpace=wrap;html=1;" vertex="1" parent="WIyWlLk6GJQsqaUBKTNV-1">
          <mxGeometry x="370" y="420" width="120" height="60" as="geometry" />
        </mxCell>
        <mxCell id="cFMcKcCD4Te3fT23bWpL-7" style="edgeStyle=orthogonalEdgeStyle;rounded=0;orthogonalLoop=1;jettySize=auto;html=1;" edge="1" parent="WIyWlLk6GJQsqaUBKTNV-1" source="cFMcKcCD4Te3fT23bWpL-5" target="cFMcKcCD4Te3fT23bWpL-8">
          <mxGeometry relative="1" as="geometry">
            <mxPoint x="210" y="560" as="targetPoint" />
          </mxGeometry>
        </mxCell>
        <mxCell id="cFMcKcCD4Te3fT23bWpL-5" value="Finish Chapter 1&amp;nbsp;&lt;div&gt;Boss&lt;/div&gt;" style="rounded=0;whiteSpace=wrap;html=1;" vertex="1" parent="WIyWlLk6GJQsqaUBKTNV-1">
          <mxGeometry x="360" y="530" width="120" height="60" as="geometry" />
        </mxCell>
        <mxCell id="cFMcKcCD4Te3fT23bWpL-10" style="edgeStyle=orthogonalEdgeStyle;rounded=0;orthogonalLoop=1;jettySize=auto;html=1;exitX=0.5;exitY=1;exitDx=0;exitDy=0;" edge="1" parent="WIyWlLk6GJQsqaUBKTNV-1" source="cFMcKcCD4Te3fT23bWpL-8" target="cFMcKcCD4Te3fT23bWpL-9">
          <mxGeometry relative="1" as="geometry" />
        </mxCell>
        <mxCell id="cFMcKcCD4Te3fT23bWpL-8" value="Chapter 2 Start" style="rounded=0;whiteSpace=wrap;html=1;" vertex="1" parent="WIyWlLk6GJQsqaUBKTNV-1">
          <mxGeometry x="140" y="530" width="120" height="60" as="geometry" />
        </mxCell>
        <mxCell id="cFMcKcCD4Te3fT23bWpL-9" value="Befriend Ranveer&lt;div&gt;&lt;br&gt;&lt;/div&gt;" style="rounded=0;whiteSpace=wrap;html=1;" vertex="1" parent="WIyWlLk6GJQsqaUBKTNV-1">
          <mxGeometry x="130" y="660" width="120" height="50" as="geometry" />
        </mxCell>
        <mxCell id="cFMcKcCD4Te3fT23bWpL-15" style="edgeStyle=orthogonalEdgeStyle;rounded=0;orthogonalLoop=1;jettySize=auto;html=1;" edge="1" parent="WIyWlLk6GJQsqaUBKTNV-1" source="cFMcKcCD4Te3fT23bWpL-11" target="cFMcKcCD4Te3fT23bWpL-13">
          <mxGeometry relative="1" as="geometry" />
        </mxCell>
        <mxCell id="cFMcKcCD4Te3fT23bWpL-11" value="Defeat Weed&lt;div&gt;Guy&lt;/div&gt;" style="rounded=0;whiteSpace=wrap;html=1;" vertex="1" parent="WIyWlLk6GJQsqaUBKTNV-1">
          <mxGeometry x="290" y="620" width="120" height="60" as="geometry" />
        </mxCell>
        <mxCell id="cFMcKcCD4Te3fT23bWpL-12" style="edgeStyle=orthogonalEdgeStyle;rounded=0;orthogonalLoop=1;jettySize=auto;html=1;entryX=0;entryY=0.167;entryDx=0;entryDy=0;entryPerimeter=0;" edge="1" parent="WIyWlLk6GJQsqaUBKTNV-1" source="cFMcKcCD4Te3fT23bWpL-9" target="cFMcKcCD4Te3fT23bWpL-11">
          <mxGeometry relative="1" as="geometry" />
        </mxCell>
        <mxCell id="cFMcKcCD4Te3fT23bWpL-20" style="edgeStyle=orthogonalEdgeStyle;rounded=0;orthogonalLoop=1;jettySize=auto;html=1;exitX=0.5;exitY=1;exitDx=0;exitDy=0;" edge="1" parent="WIyWlLk6GJQsqaUBKTNV-1" source="cFMcKcCD4Te3fT23bWpL-13" target="cFMcKcCD4Te3fT23bWpL-18">
          <mxGeometry relative="1" as="geometry" />
        </mxCell>
        <mxCell id="cFMcKcCD4Te3fT23bWpL-13" value="Give weed to&amp;nbsp;&lt;div&gt;Ranveer&lt;/div&gt;" style="rounded=0;whiteSpace=wrap;html=1;" vertex="1" parent="WIyWlLk6GJQsqaUBKTNV-1">
          <mxGeometry x="320" y="700" width="90" height="60" as="geometry" />
        </mxCell>
        <mxCell id="cFMcKcCD4Te3fT23bWpL-23" style="edgeStyle=orthogonalEdgeStyle;rounded=0;orthogonalLoop=1;jettySize=auto;html=1;entryX=0.5;entryY=0;entryDx=0;entryDy=0;" edge="1" parent="WIyWlLk6GJQsqaUBKTNV-1" source="cFMcKcCD4Te3fT23bWpL-16" target="cFMcKcCD4Te3fT23bWpL-22">
          <mxGeometry relative="1" as="geometry" />
        </mxCell>
        <mxCell id="cFMcKcCD4Te3fT23bWpL-16" value="Fast Travel" style="rounded=0;whiteSpace=wrap;html=1;" vertex="1" parent="WIyWlLk6GJQsqaUBKTNV-1">
          <mxGeometry x="220" y="730" width="50" height="60" as="geometry" />
        </mxCell>
        <mxCell id="cFMcKcCD4Te3fT23bWpL-24" style="edgeStyle=orthogonalEdgeStyle;rounded=0;orthogonalLoop=1;jettySize=auto;html=1;" edge="1" parent="WIyWlLk6GJQsqaUBKTNV-1" source="cFMcKcCD4Te3fT23bWpL-18" target="cFMcKcCD4Te3fT23bWpL-22">
          <mxGeometry relative="1" as="geometry" />
        </mxCell>
        <mxCell id="cFMcKcCD4Te3fT23bWpL-18" value="&amp;nbsp; &amp;nbsp; &amp;nbsp; &amp;nbsp; &amp;nbsp; &amp;nbsp; &amp;nbsp; Walk manually&lt;div&gt;via the main street&lt;/div&gt;&lt;div&gt;and forest&amp;nbsp; &amp;nbsp; &amp;nbsp; &amp;nbsp; &amp;nbsp;&amp;nbsp;&lt;/div&gt;" style="rounded=0;whiteSpace=wrap;html=1;" vertex="1" parent="WIyWlLk6GJQsqaUBKTNV-1">
          <mxGeometry x="320" y="800" width="120" height="60" as="geometry" />
        </mxCell>
        <mxCell id="cFMcKcCD4Te3fT23bWpL-21" style="edgeStyle=orthogonalEdgeStyle;rounded=0;orthogonalLoop=1;jettySize=auto;html=1;entryX=0.938;entryY=0.593;entryDx=0;entryDy=0;entryPerimeter=0;" edge="1" parent="WIyWlLk6GJQsqaUBKTNV-1" source="cFMcKcCD4Te3fT23bWpL-13" target="cFMcKcCD4Te3fT23bWpL-16">
          <mxGeometry relative="1" as="geometry" />
        </mxCell>
        <mxCell id="cFMcKcCD4Te3fT23bWpL-26" style="edgeStyle=orthogonalEdgeStyle;rounded=0;orthogonalLoop=1;jettySize=auto;html=1;" edge="1" parent="WIyWlLk6GJQsqaUBKTNV-1" source="cFMcKcCD4Te3fT23bWpL-22" target="cFMcKcCD4Te3fT23bWpL-25">
          <mxGeometry relative="1" as="geometry" />
        </mxCell>
        <mxCell id="cFMcKcCD4Te3fT23bWpL-22" value="Talk to Ranveer then Hardeep" style="rounded=0;whiteSpace=wrap;html=1;" vertex="1" parent="WIyWlLk6GJQsqaUBKTNV-1">
          <mxGeometry x="50" y="790" width="120" height="60" as="geometry" />
        </mxCell>
        <mxCell id="cFMcKcCD4Te3fT23bWpL-28" style="edgeStyle=orthogonalEdgeStyle;rounded=0;orthogonalLoop=1;jettySize=auto;html=1;entryX=0;entryY=0.5;entryDx=0;entryDy=0;" edge="1" parent="WIyWlLk6GJQsqaUBKTNV-1" source="cFMcKcCD4Te3fT23bWpL-25" target="cFMcKcCD4Te3fT23bWpL-27">
          <mxGeometry relative="1" as="geometry" />
        </mxCell>
        <mxCell id="cFMcKcCD4Te3fT23bWpL-25" value="Clean Pollution with Hardeep" style="rounded=0;whiteSpace=wrap;html=1;" vertex="1" parent="WIyWlLk6GJQsqaUBKTNV-1">
          <mxGeometry x="50" y="910" width="120" height="60" as="geometry" />
        </mxCell>
        <mxCell id="cFMcKcCD4Te3fT23bWpL-30" style="edgeStyle=orthogonalEdgeStyle;rounded=0;orthogonalLoop=1;jettySize=auto;html=1;entryX=0;entryY=0.5;entryDx=0;entryDy=0;" edge="1" parent="WIyWlLk6GJQsqaUBKTNV-1" source="cFMcKcCD4Te3fT23bWpL-27" target="cFMcKcCD4Te3fT23bWpL-29">
          <mxGeometry relative="1" as="geometry" />
        </mxCell>
        <mxCell id="cFMcKcCD4Te3fT23bWpL-27" value="Meet Abd Al Qadir" style="rounded=0;whiteSpace=wrap;html=1;" vertex="1" parent="WIyWlLk6GJQsqaUBKTNV-1">
          <mxGeometry x="200" y="910" width="120" height="60" as="geometry" />
        </mxCell>
        <mxCell id="cFMcKcCD4Te3fT23bWpL-32" style="edgeStyle=orthogonalEdgeStyle;rounded=0;orthogonalLoop=1;jettySize=auto;html=1;" edge="1" parent="WIyWlLk6GJQsqaUBKTNV-1" source="cFMcKcCD4Te3fT23bWpL-29" target="cFMcKcCD4Te3fT23bWpL-31">
          <mxGeometry relative="1" as="geometry" />
        </mxCell>
        <mxCell id="cFMcKcCD4Te3fT23bWpL-29" value="He leaves you at the&amp;nbsp;&lt;div&gt;city council&lt;/div&gt;" style="rounded=0;whiteSpace=wrap;html=1;" vertex="1" parent="WIyWlLk6GJQsqaUBKTNV-1">
          <mxGeometry x="360" y="910" width="120" height="60" as="geometry" />
        </mxCell>
        <mxCell id="cFMcKcCD4Te3fT23bWpL-34" style="edgeStyle=orthogonalEdgeStyle;rounded=0;orthogonalLoop=1;jettySize=auto;html=1;" edge="1" parent="WIyWlLk6GJQsqaUBKTNV-1" source="cFMcKcCD4Te3fT23bWpL-31" target="cFMcKcCD4Te3fT23bWpL-33">
          <mxGeometry relative="1" as="geometry" />
        </mxCell>
        <mxCell id="cFMcKcCD4Te3fT23bWpL-31" value="Get Arrested&amp;nbsp;&lt;div&gt;then fight the cops&lt;/div&gt;" style="rounded=0;whiteSpace=wrap;html=1;" vertex="1" parent="WIyWlLk6GJQsqaUBKTNV-1">
          <mxGeometry x="370" y="1020" width="120" height="60" as="geometry" />
        </mxCell>
        <mxCell id="cFMcKcCD4Te3fT23bWpL-36" style="edgeStyle=orthogonalEdgeStyle;rounded=0;orthogonalLoop=1;jettySize=auto;html=1;" edge="1" parent="WIyWlLk6GJQsqaUBKTNV-1" source="cFMcKcCD4Te3fT23bWpL-33" target="cFMcKcCD4Te3fT23bWpL-35">
          <mxGeometry relative="1" as="geometry" />
        </mxCell>
        <mxCell id="cFMcKcCD4Te3fT23bWpL-33" value="Hacker calls&lt;div&gt;helps with the&amp;nbsp;&lt;/div&gt;&lt;div&gt;14 day limit on the&amp;nbsp;&lt;/div&gt;&lt;div&gt;ecryption&lt;/div&gt;" style="rounded=0;whiteSpace=wrap;html=1;" vertex="1" parent="WIyWlLk6GJQsqaUBKTNV-1">
          <mxGeometry x="220" y="1020" width="120" height="60" as="geometry" />
        </mxCell>
        <mxCell id="cFMcKcCD4Te3fT23bWpL-35" value="14 days later meet&amp;nbsp;&lt;div&gt;Benzira, she deletes&lt;/div&gt;&lt;div&gt;the criminal evidence via hacking&lt;/div&gt;" style="rounded=0;whiteSpace=wrap;html=1;" vertex="1" parent="WIyWlLk6GJQsqaUBKTNV-1">
          <mxGeometry x="40" y="1020" width="120" height="60" as="geometry" />
        </mxCell>
        <mxCell id="cFMcKcCD4Te3fT23bWpL-37" value="" style="rounded=0;whiteSpace=wrap;html=1;" vertex="1" parent="WIyWlLk6GJQsqaUBKTNV-1">
          <mxGeometry x="40" y="1130" width="120" height="60" as="geometry" />
        </mxCell>
      </root>
    </mxGraphModel>
  </diagram>
</mxfile>
